<svg xmlns="http://www.w3.org/2000/svg" id="Layer_2" data-name="Layer 2" viewBox="0 0 192.03 32.28"><g id="Layer_1-2" data-name="Layer 1"><g><polygon points="16.97 0 20.98 12.33 33.94 12.33 23.45 19.95 27.46 32.28 16.97 24.66 6.48 32.28 10.49 19.95 0 12.33 12.96 12.33 16.97 0" style="fill: #00b2d6; stroke-width: 0px;"></polygon><polygon points="56.49 0 60.5 12.33 73.46 12.33 62.98 19.95 66.98 32.28 56.49 24.66 46 32.28 50.01 19.95 39.52 12.33 52.49 12.33 56.49 0" style="fill: #00b2d6; stroke-width: 0px;"></polygon><polygon points="96.02 0 100.02 12.33 112.99 12.33 102.5 19.95 106.5 32.28 96.02 24.66 85.53 32.28 89.53 19.95 79.04 12.33 92.01 12.33 96.02 0" style="fill: #00b2d6; stroke-width: 0px;"></polygon><polygon points="135.54 0 139.54 12.33 152.51 12.33 142.02 19.95 146.03 32.28 135.54 24.66 125.05 32.28 129.05 19.95 118.57 12.33 131.53 12.33 135.54 0" style="fill: #00b2d6; stroke-width: 0px;"></polygon><polygon points="175.06 0 179.07 12.33 192.03 12.33 181.54 19.95 185.55 32.28 175.06 24.66 164.57 32.28 168.58 19.95 158.09 12.33 171.05 12.33 175.06 0" style="fill: #00b2d6; stroke-width: 0px;"></polygon></g></g></svg>